<svg width="512" height="512" xmlns="http://www.w3.org/2000/svg">
 <g>
  <title>background</title>
  <rect x="-1" y="-1" width="24.933841" height="24.933841" id="canvas_background" fill="none"/>
 </g>

 <g>
  <title>Layer 1</title>
  <rect rx="20" id="svg_1" height="512.428045" width="512.428025" y="-0.213989" x="-0.21402" fill-opacity="null" stroke-opacity="null" stroke-width="null" stroke="null" fill="#2196f3"/>
  <path d="m256.001678,56.923374c-109.550903,0 -198.359543,89.129513 -198.359543,199.075954c0,35.219757 9.123238,68.295868 25.113586,96.996216c1.636765,2.734436 2.194748,5.643524 2.797501,8.463959c0.602753,2.820465 -0.020477,14.354004 -1.035309,19.122864c-1.470428,9.102264 -18.840317,49.64444 -20.475815,55.227509c-3.946716,9.722626 -1.759644,18.088989 11.517639,14.127991c6.458832,-1.439789 36.992126,-14.3797 49.909821,-17.981079c9.684982,-2.536621 21.873215,-2.080658 33.317886,-0.672943c2.367538,0.223419 5.848419,1.2612 7.225433,2.158966c27.00885,13.826141 57.588211,21.632507 89.9888,21.632507c109.55072,0 198.359436,-89.129517 198.359436,-199.075989s-88.808716,-199.075954 -198.359436,-199.075954zm112.616974,254.687496c0,7.530243 -4.901428,19.153717 -16.636627,19.153717s-17.916321,-9.113831 -17.916321,-19.153717c0,-10.038544 0,-43.628448 0,-59.054886s-9.285797,-32.518753 -29.43399,-32.518753s-28.154236,17.514832 -28.154236,32.517441s0,52.711502 0,59.054947s-2.611908,19.153656 -16.636597,19.153656c-14.024841,0 -17.916489,-12.215546 -17.916489,-19.153656s0,-43.591248 0,-59.054947s-8.692001,-31.921509 -29.434006,-31.921509s-29.433975,16.9189 -29.433975,31.921509s0,53.306107 0,59.054947s-2.413589,19.153656 -16.636597,19.153656s-17.916336,-13.800446 -17.916336,-19.153656c0,-5.351929 0,-67.999222 0,-72.308273c0,-3.028503 0.984116,-8.820969 2.789825,-13.989258c0.725601,-2.286163 -0.070389,-8.508881 -1.360352,-10.241486c-2.508301,-3.476776 -3.988953,-7.748535 -3.988953,-12.372238c0,-11.70311 9.453415,-21.191956 21.115677,-21.191956c5.290451,0 10.113785,1.96637 13.819901,5.192657c1.823639,2.098663 7.018097,2.548172 11.13501,1.229141c2.330399,-0.49321 9.191086,-3.047806 20.4758,-3.047806c14.228134,0 31.589081,4.000793 42.231567,14.607056c3.160919,2.973312 6.137573,2.216797 8.95816,0c1.103119,-0.861832 14.377808,-14.607056 42.231323,-14.607056s37.181549,9.538956 46.070587,18.460144s16.636627,25.739883 16.636627,36.44632c0,10.705139 0,64.295105 0,71.824005z" fill="#ffffff" id="svg_4"/>
 </g>
</svg>