<svg width="512" height="512" xmlns="http://www.w3.org/2000/svg">
 <g>
  <title>background</title>
  <rect x="-1" y="-1" width="24.933628" height="24.933628" id="canvas_background" fill="none"/>
 </g>

 <g>
  <title>Layer 1</title>
  <rect id="svg_1" height="287.390779" width="373.393008" y="116.556946" x="62.853352" stroke-opacity="null" stroke-width="0" stroke="null" fill="#ffffff"/>
  <path stroke-width="0" d="m255.998993,1.38122c-140.820145,0 -254.97782,113.99703 -254.97782,254.619024c0,45.046173 11.727331,87.350708 32.281836,124.058563c2.103977,3.497345 2.821201,7.218048 3.596004,10.825409c0.774807,3.607422 -0.026318,18.358826 -1.330814,24.458252c-1.890129,11.641815 -24.217958,63.495422 -26.320292,70.63623c-5.073236,12.435272 -2.2619,23.135864 14.805164,18.069733c8.302401,-1.841492 47.550894,-18.391724 64.155722,-22.997833c12.449486,-3.244354 28.116638,-2.661194 42.828026,-0.860779c3.043289,0.285797 7.517746,1.613159 9.287796,2.761383c34.718094,17.683685 74.025803,27.66803 115.674377,27.66803c140.82016,0 254.977814,-113.997009 254.977814,-254.618988s-114.157654,-254.619024 -254.977814,-254.619024zm144.761597,325.746435c0,9.631165 -6.300415,24.49762 -21.385254,24.49762s-23.030243,-11.656616 -23.030243,-24.49762c0,-12.839386 0,-55.800964 0,-75.531494s-11.936279,-41.591614 -37.835419,-41.591614s-36.190399,22.40152 -36.190399,41.589951s0,67.418228 0,75.531509s-3.357452,24.49765 -21.385223,24.49765c-18.027756,0 -23.030273,-15.623779 -23.030273,-24.49765s0,-55.753357 0,-75.531509s-11.172974,-40.827728 -37.835419,-40.827728s-37.835419,21.639297 -37.835419,40.827728s0,68.178757 0,75.531509s-3.102493,24.49765 -21.385223,24.49765s-23.030258,-17.650879 -23.030258,-24.49765c0,-6.845123 0,-86.971283 0,-92.482574c0,-3.873474 1.265022,-11.282074 3.586128,-17.892319c0.932724,-2.924011 -0.090462,-10.882919 -1.748627,-13.098923c-3.224251,-4.446793 -5.127541,-9.9104 -5.127541,-15.824142c0,-14.968307 12.151749,-27.104614 27.142807,-27.104614c6.800507,0 13.000565,2.514999 17.764542,6.641464c2.344162,2.684174 9.021286,3.259109 14.313309,1.572052c2.99559,-0.630798 11.814529,-3.898132 26.320282,-3.898132c18.289322,0 40.605652,5.117035 54.285614,18.682465c4.063202,3.802872 7.889465,2.835297 11.515106,0c1.41803,-1.102264 18.481781,-18.682465 54.285614,-18.682465s47.794312,12.200363 59.220642,23.61058s21.385254,32.921402 21.385254,46.61499c0,13.69194 0,82.233749 0,91.863266z" fill="#2196f3" id="svg_4"/>
 </g>
</svg>