<svg width="512" height="512" xmlns="http://www.w3.org/2000/svg">

 <g>
  <title>background</title>
  <rect fill="none" id="canvas_background" height="402" width="582" y="-1" x="-1"/>
 </g>
 <g>
  <title>Layer 1</title>
  <polygon id="svg_2" points="0,0 0,512 355,512 512,354 512,0   " fill="#2196f3"/>
  <path id="svg_4" fill="#ffffff" d="m256,92c-85.604004,0 -155,69.395996 -155,155c0,27.421997 7.128998,53.174988 19.624001,75.520996c1.278999,2.128998 1.714996,4.394012 2.185997,6.589996c0.471001,2.196014 -0.015999,11.175995 -0.808998,14.889008c-1.149002,7.087006 -14.722,38.653015 -16,43c-3.084,7.570007 -1.375,14.084015 9,11c5.046997,-1.121002 28.905998,-11.196014 39.000008,-14c7.567993,-1.975006 17.091995,-1.619995 26.034988,-0.523987c1.850006,0.173981 4.570007,0.981995 5.646011,1.681c21.104996,10.764984 45,16.842987 70.317993,16.842987c85.604004,0 155,-69.395996 155,-155s-69.395996,-155 -155,-155zm88,198.299011c0,5.863007 -3.829987,14.912994 -13,14.912994s-14,-7.096008 -14,-14.912994c0,-7.81601 0,-33.968994 0,-45.979996s-7.256012,-25.319016 -23,-25.319016s-22,13.636993 -22,25.317993s0,41.041016 0,45.980011s-2.040985,14.912994 -13,14.912994c-10.959,0 -14,-9.510986 -14,-14.912994s0,-33.940002 0,-45.980011s-6.792007,-24.853989 -23,-24.853989s-23,13.172989 -23,24.853989s0,41.503998 0,45.980011s-1.886002,14.912994 -13,14.912994s-14,-10.744995 -14,-14.912994c0,-4.166992 0,-52.944 0,-56.299011c0,-2.357986 0.768997,-6.867996 2.179993,-10.891998c0.567001,-1.779999 -0.054993,-6.625 -1.062988,-7.973999c-1.960007,-2.707001 -3.117004,-6.03299 -3.117004,-9.632996c0,-9.112 7.386993,-16.5 16.5,-16.5c4.134003,0 7.903,1.531006 10.798996,4.042999c1.425003,1.634003 5.484009,1.983994 8.701004,0.957001c1.820999,-0.384003 7.182007,-2.373001 16,-2.373001c11.117996,0 24.684006,3.115005 33,11.373001c2.470001,2.315002 4.79599,1.725998 7,0c0.862,-0.671005 11.234985,-11.373001 33,-11.373001s29.053986,7.427002 36,14.373001s13,20.041 13,28.376999c0,8.335007 0,50.060013 0,55.922012z"/>
  <polygon id="svg_6" points="355,354 355,512.02 512,354   " fill="#6CB6FF"/>
  <polygon opacity="0.1" id="svg_8" points="198,512 355,512 355,353.98   "/>
 </g>
</svg>